<svg xmlns="http://www.w3.org/2000/svg" width="840.976" height="233" viewBox="0 0 840.976 233">
  <g id="Delinternet_Logo" transform="translate(4877.495 -2861)">
    <rect id="Rectangle_216" data-name="Rectangle 216" width="840" height="233" transform="translate(-4877 2861)" fill="#172a08"/>
    <g id="Group_167" data-name="Group 167" transform="translate(-4811.337 2878.132)">
      <g id="Group_153" data-name="Group 153" transform="translate(0 1.703)">
        <path id="Path_5" data-name="Path 5" d="M236.352,267.236V404.49a6.914,6.914,0,0,1-6.644,7.164H193.021c-16.247,0-29.43-14.216-29.43-31.737v-46.83c0-17.527,13.183-31.737,29.43-31.737h28.57V267.236c0-4.4,3.3-7.966,7.381-7.966a7.074,7.074,0,0,1,5.217,2.334A8.241,8.241,0,0,1,236.352,267.236Z" transform="translate(-163.591 -259.27)" fill="#fff"/>
      </g>
      <g id="Group_154" data-name="Group 154" transform="translate(83.306 43.783)">
        <path id="Path_6" data-name="Path 6" d="M250.6,367.662v1.6a6.724,6.724,0,0,1-6.433,6.982h-38.1c-15.563,0-28.19-13.693-28.19-30.589V334.373h-.041V305.386c0-21.784,16.282-39.444,36.36-39.444s36.36,17.66,36.36,39.444v28.987H192.714v10.792c0,8.564,6.4,15.515,14.3,15.515h37.149a6.145,6.145,0,0,1,4.545,2.043A7.231,7.231,0,0,1,250.6,367.662Z" transform="translate(-177.835 -265.942)" fill="#fff"/>
      </g>
      <g id="Group_155" data-name="Group 155" transform="translate(582.455 43.783)">
        <path id="Path_7" data-name="Path 7" d="M338.4,367.662v1.6a6.724,6.724,0,0,1-6.427,6.982h-38.1c-15.563,0-28.184-13.693-28.184-30.589V334.373h-.047V305.386c0-21.784,16.282-39.444,36.36-39.444s36.36,17.66,36.36,39.444v28.987H280.526v10.792c0,8.564,6.4,15.515,14.294,15.515h37.156a6.165,6.165,0,0,1,4.544,2.043A7.228,7.228,0,0,1,338.4,367.662Z" transform="translate(-265.642 -265.942)" fill="#fff"/>
      </g>
      <g id="Group_156" data-name="Group 156" transform="translate(354.776 43.783)">
        <path id="Path_8" data-name="Path 8" d="M296.487,362.723a6.146,6.146,0,0,0-4.545-2.043H254.793c-7.9,0-14.3-6.951-14.3-15.515V334.373h57.841V305.386c0-21.784-16.282-39.444-36.36-39.444s-36.36,17.66-36.36,39.444v28.987h.047v11.283c0,16.9,12.621,30.589,28.184,30.589h38.1a6.724,6.724,0,0,0,6.433-6.982v-1.6A7.206,7.206,0,0,0,296.487,362.723Zm-55.906-66.987h42.788V319.35H269.145v5.9H254.8v-5.9H240.581Z" transform="translate(-225.615 -265.942)" fill="#fff"/>
      </g>
      <g id="Group_157" data-name="Group 157" transform="translate(162.657)">
        <path id="Path_9" data-name="Path 9" d="M214.669,414.8c-.2,0-.4-.013-.6-.026a23.343,23.343,0,0,1-22.043-21.034l-.035-.8V267.527c0-4.711,3.538-8.527,7.907-8.527s7.907,3.816,7.907,8.527V392.274c.339,1.721,1.737,5.02,7.451,5.487,4.351.353,7.621,4.447,7.293,9.139A8.184,8.184,0,0,1,214.669,414.8Z" transform="translate(-191.989 -259)" fill="#fff"/>
      </g>
      <g id="Group_158" data-name="Group 158" transform="translate(201.986 42.074)">
        <path id="Path_10" data-name="Path 10" d="M206.753,377.116c-4.369,0-7.913-3.822-7.913-8.527V274.2c0-4.705,3.544-8.527,7.913-8.527s7.907,3.822,7.907,8.527v94.391C214.66,373.294,211.116,377.116,206.753,377.116Z" transform="translate(-198.84 -265.671)" fill="#fff"/>
      </g>
      <g id="Group_160" data-name="Group 160" transform="translate(299.983 1.135)">
        <g id="Group_159" data-name="Group 159" transform="translate(0 0)">
          <path id="Path_11" data-name="Path 11" d="M276.388,309.5a7.688,7.688,0,0,1-7.387,7.96H247.912V403.6c0,4.705-3.539,8.527-7.907,8.527S232.1,408.31,232.1,403.6V317.464h-8.7c-4.077,0-7.381-3.564-7.381-7.96a7.682,7.682,0,0,1,7.381-7.96h8.7v-33.83c0-4.712,3.544-8.534,7.907-8.534s7.907,3.822,7.907,8.534v33.83H269A7.684,7.684,0,0,1,276.388,309.5Z" transform="translate(-216.014 -259.18)" fill="#fff"/>
        </g>
      </g>
      <g id="Group_162" data-name="Group 162" transform="translate(652.847 1.135)">
        <g id="Group_161" data-name="Group 161" transform="translate(0 0)">
          <path id="Path_12" data-name="Path 12" d="M338.046,309.5c0,4.4-3.3,7.96-7.381,7.96h-21.09V403.6c0,4.705-3.544,8.527-7.907,8.527s-7.913-3.821-7.913-8.527V317.464h-8.7c-4.082,0-7.381-3.564-7.381-7.96a7.679,7.679,0,0,1,7.381-7.96h8.7v-33.83c0-4.712,3.544-8.534,7.913-8.534s7.907,3.822,7.907,8.534v33.83h21.09A7.679,7.679,0,0,1,338.046,309.5Z" transform="translate(-277.678 -259.18)" fill="#fff"/>
        </g>
      </g>
      <g id="Group_163" data-name="Group 163" transform="translate(202.507 0.567)">
        <path id="Path_13" data-name="Path 13" d="M206.838,285.813c-4.369,0-7.907-3.816-7.907-8.527v-9.669c0-4.7,3.539-8.527,7.907-8.527s7.907,3.822,7.907,8.527v9.669C214.745,282,211.207,285.813,206.838,285.813Z" transform="translate(-198.931 -259.09)" fill="#fff"/>
      </g>
      <g id="Group_164" data-name="Group 164" transform="translate(229.98 43.783)">
        <path id="Path_14" data-name="Path 14" d="M269.705,376.246c-4.369,0-7.913-3.816-7.913-8.527V298.669c0-8.641-6.521-15.673-14.533-15.673H219.613v84.723c0,4.711-3.538,8.527-7.907,8.527s-7.907-3.816-7.907-8.527V275.011c0-5,3.772-9.069,8.41-9.069h35.05c16.738,0,30.353,14.683,30.353,32.727v69.049C277.612,372.43,274.068,376.246,269.705,376.246Z" transform="translate(-203.799 -265.942)" fill="#fff"/>
      </g>
      <g id="Group_165" data-name="Group 165" transform="translate(501.206 43.783)">
        <path id="Path_15" data-name="Path 15" d="M317.124,376.246c-4.369,0-7.907-3.816-7.907-8.527V298.669c0-8.641-6.521-15.673-14.533-15.673H267.038v84.723c0,4.711-3.544,8.527-7.907,8.527s-7.913-3.816-7.913-8.527V275.011c0-5,3.778-9.069,8.416-9.069h35.05c16.732,0,30.347,14.683,30.347,32.727v69.049C325.031,372.43,321.493,376.246,317.124,376.246Z" transform="translate(-251.218 -265.942)" fill="#fff"/>
      </g>
      <g id="Group_166" data-name="Group 166" transform="translate(435.407 43.783)">
        <path id="Path_16" data-name="Path 16" d="M247.586,376.246c-4.369,0-7.907-3.816-7.907-8.527V279.413c0-7.43,5.6-13.472,12.492-13.472h37.208c5.737,0,10.4,5.033,10.4,11.22v12.091c0,4.711-3.538,8.527-7.907,8.527s-7.907-3.815-7.907-8.527V283H255.493v84.723C255.493,372.43,251.955,376.246,247.586,376.246Z" transform="translate(-239.679 -265.942)" fill="#fff"/>
      </g>
    </g>
    <path id="Path_17" data-name="Path 17" d="M1502.832-36.886V-11.6h383.325" transform="translate(-5922.676 3069.013)" fill="none" stroke="#b6de1e" stroke-width="13"/>
    <line id="Line_27" data-name="Line 27" x1="409.084" transform="translate(-4877.495 3057.483)" fill="none" stroke="#fff" stroke-width="13"/>
  </g>
</svg>
